<svg width="20" height="20" viewBox="0 0 20 20" fill="none" xmlns="http://www.w3.org/2000/svg">
<path fill-rule="evenodd" clip-rule="evenodd" d="M10.0001 0.833328C10.4603 0.833328 10.8334 1.20642 10.8334 1.66666V4.99999C10.8334 5.46023 10.4603 5.83333 10.0001 5.83333C9.53984 5.83333 9.16675 5.46023 9.16675 4.99999V1.66666C9.16675 1.20642 9.53984 0.833328 10.0001 0.833328Z" fill="black"/>
<path fill-rule="evenodd" clip-rule="evenodd" d="M10.0001 14.1667C10.4603 14.1667 10.8334 14.5398 10.8334 15V18.3333C10.8334 18.7936 10.4603 19.1667 10.0001 19.1667C9.53984 19.1667 9.16675 18.7936 9.16675 18.3333V15C9.16675 14.5398 9.53984 14.1667 10.0001 14.1667Z" fill="black"/>
<path fill-rule="evenodd" clip-rule="evenodd" d="M3.51898 3.51907C3.84442 3.19363 4.37205 3.19363 4.69749 3.51907L7.05583 5.87741C7.38126 6.20284 7.38126 6.73048 7.05583 7.05592C6.73039 7.38135 6.20275 7.38135 5.87731 7.05592L3.51898 4.69758C3.19354 4.37215 3.19354 3.84451 3.51898 3.51907Z" fill="black"/>
<path fill-rule="evenodd" clip-rule="evenodd" d="M12.944 12.9441C13.2695 12.6186 13.7971 12.6186 14.1225 12.9441L16.4809 15.3024C16.8063 15.6278 16.8063 16.1555 16.4809 16.4809C16.1554 16.8064 15.6278 16.8064 15.3024 16.4809L12.944 14.1226C12.6186 13.7971 12.6186 13.2695 12.944 12.9441Z" fill="black"/>
<path fill-rule="evenodd" clip-rule="evenodd" d="M0.833252 10C0.833252 9.53977 1.20635 9.16667 1.66659 9.16667H4.99992C5.46016 9.16667 5.83325 9.53977 5.83325 10C5.83325 10.4602 5.46016 10.8333 4.99992 10.8333H1.66659C1.20635 10.8333 0.833252 10.4602 0.833252 10Z" fill="black"/>
<path fill-rule="evenodd" clip-rule="evenodd" d="M14.1667 10C14.1667 9.53977 14.5398 9.16667 15.0001 9.16667H18.3334C18.7937 9.16667 19.1667 9.53977 19.1667 10C19.1667 10.4602 18.7937 10.8333 18.3334 10.8333H15.0001C14.5398 10.8333 14.1667 10.4602 14.1667 10Z" fill="black"/>
<path fill-rule="evenodd" clip-rule="evenodd" d="M7.05583 12.9441C7.38126 13.2695 7.38126 13.7971 7.05583 14.1226L4.69749 16.4809C4.37205 16.8064 3.84442 16.8064 3.51898 16.4809C3.19354 16.1555 3.19354 15.6278 3.51898 15.3024L5.87731 12.9441C6.20275 12.6186 6.73039 12.6186 7.05583 12.9441Z" fill="black"/>
<path fill-rule="evenodd" clip-rule="evenodd" d="M16.4809 3.51907C16.8063 3.84451 16.8063 4.37215 16.4809 4.69758L14.1225 7.05592C13.7971 7.38135 13.2695 7.38135 12.944 7.05592C12.6186 6.73048 12.6186 6.20284 12.944 5.87741L15.3024 3.51907C15.6278 3.19363 16.1554 3.19363 16.4809 3.51907Z" fill="black"/>
</svg>
